<svg width="43" height="42" viewBox="0 0 43 42" fill="none" xmlns="http://www.w3.org/2000/svg">
<path fill-rule="evenodd" clip-rule="evenodd" d="M21.4591 5.84827C17.2543 5.84827 16.728 5.86581 15.0766 5.94116C13.4283 6.0165 12.3023 6.27865 11.3177 6.66157C10.2855 7.04964 9.34943 7.65858 8.57535 8.44711C7.78808 9.22029 7.17876 10.1558 6.78981 11.1884C6.40896 12.173 6.14577 13.3001 6.07043 14.9483C5.99612 16.5987 5.97754 17.124 5.97754 21.3299C5.97754 25.5357 5.99508 26.061 6.07043 27.7124C6.14577 29.3607 6.40793 30.4867 6.79084 31.4713C7.17891 32.5034 7.78785 33.4396 8.57638 34.2136C9.34959 35.0009 10.285 35.6102 11.3177 35.9992C12.3023 36.3811 13.4283 36.6432 15.0766 36.7186C16.728 36.7939 17.2543 36.8114 21.4591 36.8114C25.6639 36.8114 26.1903 36.7939 27.8417 36.7186C29.4899 36.6432 30.616 36.3811 31.6006 35.9981C32.6327 35.6101 33.5688 35.0011 34.3429 34.2126C35.1302 33.4394 35.7395 32.504 36.1284 31.4713C36.5103 30.4867 36.7725 29.3607 36.8478 27.7124C36.9232 26.061 36.9407 25.5347 36.9407 21.3299C36.9407 17.1251 36.9232 16.5987 36.8478 14.9473C36.7725 13.299 36.5103 12.173 36.1274 11.1884C35.7387 10.1553 35.1294 9.21946 34.3419 8.44608C33.5687 7.65881 32.6332 7.04949 31.6006 6.66053C30.616 6.27969 29.4889 6.0165 27.8406 5.94116C26.1903 5.86684 25.665 5.84827 21.4591 5.84827ZM21.4591 8.63805C25.5927 8.63805 26.083 8.65353 27.7158 8.72784C29.2247 8.79699 30.0442 9.04779 30.5902 9.26144C31.3126 9.54114 31.8287 9.87761 32.3705 10.4184C32.9124 10.9603 33.2478 11.4763 33.5275 12.1988C33.7402 12.7448 33.992 13.5643 34.0611 15.0732C34.1354 16.706 34.1509 17.1963 34.1509 21.3299C34.1509 25.4634 34.1354 25.9537 34.0611 27.5865C33.992 29.0954 33.7412 29.9149 33.5275 30.4609C33.2798 31.1334 32.8844 31.7417 32.3705 32.2413C31.8711 32.7552 31.2627 33.1506 30.5902 33.3983C30.0442 33.6109 29.2247 33.8627 27.7158 33.9319C26.083 34.0062 25.5937 34.0217 21.4591 34.0217C17.3245 34.0217 16.8353 34.0062 15.2025 33.9319C13.6936 33.8627 12.8741 33.6119 12.3281 33.3983C11.6556 33.1505 11.0472 32.7551 10.5477 32.2413C10.0339 31.7417 9.63855 31.1333 9.39071 30.4609C9.1781 29.9149 8.92627 29.0954 8.85711 27.5865C8.7828 25.9537 8.76732 25.4634 8.76732 21.3299C8.76732 17.1963 8.7828 16.706 8.85711 15.0732C8.92627 13.5643 9.17707 12.7448 9.39071 12.1988C9.67041 11.4763 10.0069 10.9603 10.5477 10.4184C11.0472 9.90449 11.6556 9.50912 12.3281 9.26144C12.8741 9.04883 13.6936 8.79699 15.2025 8.72784C16.8353 8.65353 17.3255 8.63805 21.4591 8.63805Z" fill="#434445"/>
<path fill-rule="evenodd" clip-rule="evenodd" d="M21.459 26.4955C20.7806 26.4955 20.1089 26.3619 19.4822 26.1023C18.8554 25.8427 18.286 25.4622 17.8063 24.9825C17.3266 24.5029 16.9461 23.9334 16.6865 23.3067C16.4269 22.6799 16.2933 22.0082 16.2933 21.3298C16.2933 20.6515 16.4269 19.9798 16.6865 19.353C16.9461 18.7263 17.3266 18.1568 17.8063 17.6772C18.286 17.1975 18.8554 16.817 19.4822 16.5574C20.1089 16.2978 20.7806 16.1642 21.459 16.1642C22.829 16.1642 24.1429 16.7084 25.1117 17.6772C26.0804 18.6459 26.6247 19.9598 26.6247 21.3298C26.6247 22.6999 26.0804 24.0138 25.1117 24.9825C24.1429 25.9513 22.829 26.4955 21.459 26.4955ZM21.459 13.3723C19.3485 13.3723 17.3245 14.2107 15.8322 15.703C14.3398 17.1953 13.5015 19.2194 13.5015 21.3298C13.5015 23.4403 14.3398 25.4643 15.8322 26.9567C17.3245 28.449 19.3485 29.2874 21.459 29.2874C23.5695 29.2874 25.5935 28.449 27.0858 26.9567C28.5782 25.4643 29.4165 23.4403 29.4165 21.3298C29.4165 19.2194 28.5782 17.1953 27.0858 15.703C25.5935 14.2107 23.5695 13.3723 21.459 13.3723ZM31.7315 13.2278C31.7315 13.7267 31.5334 14.2051 31.1806 14.5579C30.8279 14.9107 30.3494 15.1088 29.8505 15.1088C29.3517 15.1088 28.8732 14.9107 28.5205 14.5579C28.1677 14.2051 27.9695 13.7267 27.9695 13.2278C27.9695 12.7289 28.1677 12.2505 28.5205 11.8977C28.8732 11.545 29.3517 11.3468 29.8505 11.3468C30.3494 11.3468 30.8279 11.545 31.1806 11.8977C31.5334 12.2505 31.7315 12.7289 31.7315 13.2278Z" fill="#434445"/>
</svg>
