<svg width="199" height="41" viewBox="0 0 199 41" fill="none" xmlns="http://www.w3.org/2000/svg">
<path d="M122.263 11.9251V7.46743C122.263 6.49158 122.169 6.04607 121.792 5.31098V5.28699H124.798C126.931 5.28699 127.78 6.13003 127.78 7.39546C127.78 8.40729 127.25 9.2392 126.071 9.62474L127.473 12.4323C127.969 13.4441 128.228 13.7097 128.841 14.0225V14.1064H126.766L124.644 9.85349H123.619V11.926C123.619 12.9258 123.701 13.3353 124.09 14.0824V14.1064H121.792V14.0824C122.169 13.3473 122.263 12.9018 122.263 11.926V11.9251ZM124.184 5.52774C124.031 5.52774 123.842 5.52774 123.618 5.53973V9.61189H124.538C126.011 9.61189 126.4 8.57607 126.4 7.38261C126.4 6.28596 125.988 5.52688 124.538 5.52688H124.184V5.52774Z" fill="#1A1D22"/>
<path d="M131.489 14.2864C129.921 14.2864 128.836 13.021 128.836 11.3349C128.836 9.40718 130.263 8.17859 131.559 8.17859C132.938 8.17859 133.87 9.468 133.811 10.5278H130.027V10.7566C130.027 12.4555 130.852 13.2626 132.09 13.2626C132.809 13.2626 133.34 12.973 133.752 12.4555L133.823 12.5035C133.504 13.5033 132.714 14.2864 131.489 14.2864ZM130.05 10.335L132.609 10.2751V10.1423C132.609 8.93767 132.255 8.39535 131.512 8.39535C130.616 8.39535 130.145 9.23839 130.05 10.335Z" fill="#1A1D22"/>
<path d="M134.919 12.8281V8.57521H134.283V8.50325L135.992 6.99707H136.11V8.35845H137.631V8.57521H136.11V12.7922C136.11 13.3825 136.381 13.684 136.935 13.684C137.348 13.684 137.654 13.5153 137.713 13.4793L137.748 13.5273C137.418 13.9968 136.9 14.2863 136.239 14.2863C135.532 14.2863 134.919 13.9608 134.919 12.8281Z" fill="#1A1D22"/>
<path d="M138.404 14.0816C138.616 13.4193 138.663 12.829 138.663 11.7683V6.94909C138.663 6.16602 138.416 5.70851 138.132 5.38294V5.35895L139.842 4.73267V9.28717C140.349 8.66089 140.903 8.17853 141.74 8.17853C142.824 8.17853 143.414 8.85366 143.414 9.92546V11.7692C143.414 12.8299 143.425 13.4202 143.673 14.0824V14.1064H141.963V14.0824C142.187 13.4073 142.234 12.781 142.234 11.7692V10.203C142.234 9.51593 141.916 8.91363 141.149 8.91363C140.642 8.91363 140.206 9.14238 139.841 9.52792V11.7692C139.841 12.805 139.864 13.4202 140.112 14.0824V14.1064H138.402V14.0824L138.404 14.0816Z" fill="#1A1D22"/>
<path d="M145.053 11.7683V10.3949C145.053 9.62383 144.806 9.16633 144.522 8.84076V8.7568L146.232 8.11852V11.7572C146.232 12.781 146.243 13.4201 146.491 14.0824V14.1064H144.781V14.0824C144.935 13.4201 145.052 12.817 145.052 11.7691L145.053 11.7683ZM145.584 6.90107C145.195 6.90107 144.876 6.5755 144.876 6.17797C144.876 5.78043 145.195 5.44287 145.584 5.44287C145.973 5.44287 146.291 5.78043 146.291 6.17797C146.291 6.5755 145.973 6.90107 145.584 6.90107Z" fill="#1A1D22"/>
<path d="M147.583 14.1055V14.0815C147.807 13.4064 147.854 12.841 147.854 11.7683V10.3469C147.854 9.53989 147.607 9.10637 147.323 8.7808V8.75681L148.986 8.11853V9.27515L149.033 9.28714C149.54 8.66086 150.094 8.1785 150.93 8.1785C152.015 8.1785 152.593 8.85363 152.593 9.92543V11.7572C152.593 12.8538 152.616 13.4081 152.864 14.0824V14.1064H151.154V14.0824C151.355 13.4201 151.413 12.781 151.413 11.7692V10.203C151.413 9.5159 151.118 8.9136 150.329 8.9136C149.821 8.9136 149.374 9.14235 149.032 9.5159V11.7572C149.032 12.805 149.055 13.4201 149.291 14.0824V14.1064H147.581L147.583 14.1055Z" fill="#1A1D22"/>
<path d="M154.156 12.4306V6.94909C154.156 6.16602 153.909 5.7205 153.625 5.39494V5.37095L155.335 4.73267V12.4195C155.335 13.3233 155.441 13.7569 155.618 14.0824V14.1064H153.897V14.0824C154.051 13.7449 154.156 13.3353 154.156 12.4315V12.4306ZM155.429 11.1172L156.785 9.61103C157.162 9.1895 157.304 8.68316 157.115 8.38244V8.35845H158.648V8.38244C157.94 8.70801 157.434 9.22549 156.95 9.75582L156.337 10.4429L158.07 12.9969C158.436 13.5153 158.683 13.852 159.095 14.0816V14.1056H157.456L155.429 11.1172H155.429Z" fill="#1A1D22"/>
<path d="M127.862 20.2502C127.862 21.8284 126.824 22.8162 125.186 22.8162H123.276V26.1533H122.238V17.7194H125.268C126.847 17.7194 127.862 18.7432 127.862 20.2494V20.2502ZM126.765 20.2622C126.765 19.2624 126.104 18.6961 125.174 18.6961H123.276V21.8404H125.092C126.165 21.8404 126.766 21.2381 126.766 20.2622H126.765Z" fill="#1A1D22"/>
<path d="M129.208 17.5994H130.233V26.1532H129.208V17.5994Z" fill="#1A1D22"/>
<path d="M136.973 25.3341V26.1532H136.502C135.948 26.1532 135.582 25.9604 135.452 25.3821C135.04 25.9244 134.379 26.274 133.507 26.274C132.411 26.274 131.562 25.7317 131.562 24.5511C131.562 23.3705 132.411 22.8281 133.567 22.7073L135.323 22.5385V22.201C135.323 21.3819 134.887 20.8756 134.097 20.8756C133.308 20.8756 132.942 21.3699 132.824 22.0202H131.799C131.917 20.8636 132.742 20.0085 134.097 20.0085C135.453 20.0085 136.361 20.7676 136.361 22.2258V24.8406C136.361 25.1902 136.514 25.335 136.82 25.335H136.974L136.973 25.3341ZM135.322 23.3105L133.895 23.4553C133.129 23.5272 132.599 23.8768 132.599 24.5159C132.599 25.1911 133.082 25.4318 133.648 25.4318C134.426 25.4318 135.322 25.0103 135.322 23.8417V23.3113V23.3105Z" fill="#1A1D22"/>
<path d="M137.836 24.3223H138.838C138.92 25.1534 139.463 25.4429 140.147 25.4429C140.724 25.4429 141.243 25.2022 141.243 24.5999C141.243 23.9376 140.619 23.684 140.029 23.5032L139.629 23.3944C138.933 23.1897 138.026 22.8641 138.026 21.7315C138.026 20.5988 138.957 20.0085 140.019 20.0085C141.434 20.0085 142.082 20.8756 142.128 21.7315H141.127C141.08 21.2011 140.667 20.8396 140.03 20.8396C139.488 20.8396 139.017 21.1163 139.017 21.6826C139.017 22.249 139.547 22.4297 140.125 22.6105L140.502 22.7313C141.351 22.9721 142.235 23.4064 142.235 24.575C142.235 25.7437 141.28 26.274 140.148 26.274C138.64 26.274 137.897 25.4549 137.838 24.3223H137.836Z" fill="#1A1D22"/>
<path d="M144.286 24.7928V20.9853H143.036V20.1303H143.437C144.133 20.1303 144.38 19.8896 144.38 19.2384V18.4913H145.323V20.1294H146.797V20.9845H145.323V24.6471C145.323 25.0806 145.488 25.4062 146.066 25.4062C146.254 25.4062 146.466 25.3702 146.655 25.3102V26.1413C146.443 26.2013 146.16 26.2741 145.794 26.2741C144.569 26.2741 144.285 25.491 144.285 24.7919L144.286 24.7928Z" fill="#1A1D22"/>
<path d="M147.644 18.4673C147.644 18.0817 147.962 17.7802 148.339 17.7802C148.717 17.7802 149.012 18.0817 149.012 18.4673C149.012 18.8528 148.705 19.1664 148.339 19.1664C147.974 19.1664 147.644 18.8528 147.644 18.4673ZM147.82 20.1302H148.846V26.1541H147.82V20.1302Z" fill="#1A1D22"/>
<path d="M150.184 23.1778C150.184 21.3461 151.409 20.0095 153.108 20.0095C154.416 20.0095 155.56 20.7686 155.772 22.166H154.734C154.58 21.5037 153.991 20.9374 153.107 20.9374C151.998 20.9374 151.221 21.9132 151.221 23.1787C151.221 24.4441 151.94 25.3471 153.118 25.3471C153.991 25.3471 154.533 24.8896 154.757 24.1905H155.795C155.571 25.4559 154.534 26.275 153.119 26.275C151.327 26.275 150.184 24.9376 150.184 23.1787V23.1778Z" fill="#1A1D22"/>
<path d="M160.321 24.3223H161.323C161.405 25.1534 161.948 25.4429 162.632 25.4429C163.209 25.4429 163.728 25.2022 163.728 24.5999C163.728 23.9376 163.104 23.684 162.514 23.5032L162.114 23.3944C161.418 23.1897 160.511 22.8641 160.511 21.7315C160.511 20.5988 161.442 20.0085 162.503 20.0085C163.918 20.0085 164.566 20.8756 164.613 21.7315H163.612C163.565 21.2011 163.152 20.8396 162.515 20.8396C161.973 20.8396 161.502 21.1163 161.502 21.6826C161.502 22.249 162.032 22.4297 162.61 22.6105L162.987 22.7313C163.835 22.9721 164.72 23.4064 164.72 24.575C164.72 25.7437 163.765 26.274 162.633 26.274C161.124 26.274 160.382 25.4549 160.323 24.3223H160.321Z" fill="#1A1D22"/>
<path d="M171.018 26.1541H170.087L169.993 25.431H169.911C169.593 25.8765 169.121 26.274 168.202 26.274C166.94 26.274 166.057 25.455 166.057 23.9128V20.1294H167.082V23.6832C167.082 24.8398 167.695 25.3462 168.461 25.3462C169.227 25.3462 169.993 24.8158 169.993 23.5633V20.1294H171.018V26.1532V26.1541Z" fill="#1A1D22"/>
<path d="M172.66 20.1293H173.592L173.685 20.9604H173.768C174.074 20.4181 174.487 20.0085 175.453 20.0085H175.795V21.0692C175.619 21.0452 175.453 21.0452 175.265 21.0452C174.24 21.0452 173.685 21.8643 173.685 22.9969V26.1532H172.66V20.1293Z" fill="#1A1D22"/>
<path d="M180.904 20.9005C181.14 21.2381 181.27 21.6356 181.27 22.0811C181.27 23.3466 180.315 24.1296 179.054 24.1296C178.665 24.1296 178.311 24.0577 177.992 23.9249C177.733 24.0577 177.603 24.2385 177.603 24.4672C177.603 24.8408 177.922 25.0215 178.452 25.0215H179.607C180.927 25.0215 181.658 25.6598 181.658 26.7205C181.658 27.9979 180.597 28.6842 179.1 28.6842C177.367 28.6842 176.553 27.7443 176.436 26.6237L177.426 25.7686C176.966 25.5998 176.659 25.2023 176.659 24.672C176.659 24.1416 177.013 23.7681 177.414 23.5513C177.025 23.1898 176.801 22.6843 176.801 22.0811C176.801 20.8885 177.685 20.0087 179.017 20.0087C179.536 20.0087 179.996 20.1415 180.361 20.3822C180.715 20.2014 181.092 19.8519 181.316 19.5511L181.894 20.1774C181.693 20.3942 181.316 20.6958 180.904 20.9005H180.904ZM179.502 25.8766H178.464L177.462 26.7316C177.604 27.2979 178.052 27.8522 179.101 27.8522C179.914 27.8522 180.669 27.5267 180.669 26.7676C180.669 26.0685 179.997 25.8757 179.502 25.8757V25.8766ZM180.28 22.0811C180.28 21.3341 179.809 20.8157 179.054 20.8157C178.3 20.8157 177.793 21.3341 177.793 22.0811C177.793 22.7803 178.3 23.3217 179.054 23.3217C179.809 23.3217 180.28 22.7794 180.28 22.0811Z" fill="#1A1D22"/>
<path d="M187.898 23.3944H183.501C183.559 24.587 184.243 25.4061 185.34 25.4061C186.106 25.4061 186.684 25.0565 186.884 24.3943H187.886C187.627 25.5869 186.648 26.274 185.339 26.274C183.665 26.274 182.475 25.0574 182.475 23.2017C182.475 21.25 183.7 20.0085 185.292 20.0085C186.719 20.0085 187.921 21.0084 187.921 23.0209C187.921 23.1417 187.909 23.2496 187.898 23.3944ZM183.512 22.6234H186.919C186.908 21.5875 186.247 20.8764 185.292 20.8764C184.337 20.8764 183.618 21.6475 183.512 22.6234Z" fill="#1A1D22"/>
<path d="M189.332 20.1293H190.263L190.357 20.9604H190.439C190.746 20.4181 191.159 20.0085 192.125 20.0085H192.467V21.0692C192.29 21.0452 192.125 21.0452 191.937 21.0452C190.911 21.0452 190.357 21.8643 190.357 22.9969V26.1532H189.332V20.1293Z" fill="#1A1D22"/>
<path d="M193.647 28.5513V27.7442C193.859 27.7922 194.095 27.8282 194.284 27.8282C194.814 27.8282 195.285 27.5994 195.545 26.9363L195.852 26.1532H195.498L193.235 20.1294H194.308L196.124 25.0574H196.206L197.927 20.1294H199L196.524 27.0931C196.359 27.5626 195.958 28.6832 194.485 28.6832C194.131 28.6832 193.86 28.6113 193.648 28.5504L193.647 28.5513Z" fill="#1A1D22"/>
<path d="M104.086 5.54149L96.9512 24.7234H96.6678L90.7344 8.88969C89.9816 6.87289 88.0896 5.54063 85.9771 5.53978L80.8207 5.53549V0H78.3914V2.60453C78.3914 4.80211 77.595 5.53464 75.2855 5.53464H73.9316V7.77334H78.1525V21.7736V23.6987H80.7763V26.3786H86.5656V23.6524H80.8199V21.7736V7.77334H85.3852C86.6888 7.77334 87.8574 8.59582 88.3218 9.84069L94.4807 26.2741H96.3719L90.8945 41H93.6609L106.851 5.54149H104.084H104.086Z" fill="#1A1D22"/>
<path d="M62.1169 5.24158C56.3561 5.24158 52.3281 9.85263 52.3281 15.9459C52.3281 21.9569 56.3964 26.6502 62.1169 26.6502C67.8366 26.6502 71.9861 22.0802 71.9861 15.9459C71.9861 9.89376 67.7963 5.24158 62.1169 5.24158ZM62.1169 24.1793C57.8072 24.1793 54.9872 20.4327 54.9872 15.945C54.9872 11.4573 57.7661 7.71074 62.1169 7.71074C66.3871 7.71074 69.2868 11.4573 69.2868 15.945C69.2868 20.4327 66.4265 24.1793 62.1169 24.1793Z" fill="#1A1D22"/>
<path d="M39.9398 5.20825C34.4054 5.20825 30.54 9.71393 30.54 16.1653C30.54 19.2556 31.4613 21.9021 33.2033 23.817C34.9092 25.6924 37.3436 26.7248 40.0563 26.7248C44.5068 26.7248 47.6831 24.3867 48.5525 20.4705L48.6698 19.941H45.3007L45.2077 20.2452C44.5496 22.405 42.7196 23.5942 40.0563 23.5942C36.6227 23.5942 34.2713 21.0051 33.9762 16.9552H48.6086L48.6723 16.5997C48.757 16.1242 48.757 15.7815 48.757 15.4499C48.757 9.22815 45.2957 5.2074 39.9398 5.2074V5.20825ZM34.0424 14.0243C34.511 10.6529 36.8826 8.33884 39.9398 8.33884C43.0071 8.33884 45.1314 10.605 45.3292 14.0243H34.0416H34.0424Z" fill="#1A1D22"/>
<path d="M104.086 5.54149L96.9512 24.7234H96.6678L90.7344 8.88969C89.9816 6.87289 88.0896 5.54063 85.9771 5.53978L80.8207 5.53549V0H78.3914V2.60453C78.3914 4.80211 77.595 5.53464 75.2855 5.53464H73.9316V7.77334H78.1525V21.7736V23.6987H80.7763V26.3786H86.5656V23.6524H80.8199V21.7736V7.77334H85.3852C86.6888 7.77334 87.8574 8.59582 88.3218 9.84069L94.4807 26.2741H96.3719L90.8945 41H93.6609L106.851 5.54149H104.084H104.086Z" fill="#1A1D22"/>
<path d="M62.1169 5.24158C56.3561 5.24158 52.3281 9.85263 52.3281 15.9459C52.3281 21.9569 56.3964 26.6502 62.1169 26.6502C67.8366 26.6502 71.9861 22.0802 71.9861 15.9459C71.9861 9.89376 67.7963 5.24158 62.1169 5.24158ZM62.1169 24.1793C57.8072 24.1793 54.9872 20.4327 54.9872 15.945C54.9872 11.4573 57.7661 7.71074 62.1169 7.71074C66.3871 7.71074 69.2868 11.4573 69.2868 15.945C69.2868 20.4327 66.4265 24.1793 62.1169 24.1793Z" fill="#1A1D22"/>
<path d="M39.9398 5.20825C34.4054 5.20825 30.54 9.71393 30.54 16.1653C30.54 19.2556 31.4613 21.9021 33.2033 23.817C34.9092 25.6924 37.3436 26.7248 40.0563 26.7248C44.5068 26.7248 47.6831 24.3867 48.5525 20.4705L48.6698 19.941H45.3007L45.2077 20.2452C44.5496 22.405 42.7196 23.5942 40.0563 23.5942C36.6227 23.5942 34.2713 21.0051 33.9762 16.9552H48.6086L48.6723 16.5997C48.757 16.1242 48.757 15.7815 48.757 15.4499C48.757 9.22815 45.2957 5.2074 39.9398 5.2074V5.20825ZM34.0424 14.0243C34.511 10.6529 36.8826 8.33884 39.9398 8.33884C43.0071 8.33884 45.1314 10.605 45.3292 14.0243H34.0416H34.0424Z" fill="#1A1D22"/>
<path d="M19.8516 5.20825C16.4943 5.20825 14.7188 7.10083 13.857 8.53246C13.2031 7.22591 11.6581 5.20825 8.35024 5.20825V5.21168H3.30707L3.32803 8.31228H0V26.4661H3.45125V8.45364H7.6511V8.45707C9.51212 8.45707 11.5014 9.71992 11.5014 13.2652V26.4438H14.9526V13.5839C14.9526 10.4944 16.703 8.41766 19.3084 8.41766C22.0899 8.41766 23.0807 10.7583 23.0807 12.9482V26.4446H26.532V12.3921C26.532 7.96015 23.9727 5.2074 19.8525 5.2074L19.8516 5.20825Z" fill="#1A1D22"/>
</svg>
