<svg width="180" height="41" viewBox="0 0 180 41" fill="none" xmlns="http://www.w3.org/2000/svg">
<path d="M37.2926 28.733H42.5396L42.2579 30.0649H38.6748L38.1673 32.6213H41.4961L41.2281 33.9395H37.8993L37.1375 37.8005H35.4873L37.2926 28.733Z" fill="#FAFAFA"/>
<path d="M48.5783 33.8187C48.5783 36.038 46.9418 37.9486 44.6006 37.9486C42.8659 37.9486 41.793 36.8048 41.793 35.244C41.793 33.0237 43.4157 31.0995 45.757 31.0995C47.6045 31.0995 48.5783 32.3641 48.5783 33.8177V33.8187ZM43.4864 35.2041C43.4864 36.1053 43.9939 36.7376 44.8263 36.7376C46.0534 36.7376 46.8712 35.1222 46.8712 33.8177C46.8712 33.1445 46.561 32.3105 45.5587 32.3105C44.2472 32.3105 43.4854 33.9794 43.4854 35.2031L43.4864 35.2041Z" fill="#FAFAFA"/>
<path d="M48.9312 37.8005L49.7352 33.7641C49.9187 32.8356 50.0031 31.8409 50.0876 31.2485H51.512C51.4698 31.6928 51.4276 32.1497 51.3569 32.634H51.3991C51.8644 31.7454 52.6124 31.1005 53.5568 31.1005C53.6697 31.1005 53.7963 31.1141 53.9092 31.1277L53.5853 32.6612C53.5009 32.6476 53.388 32.634 53.2751 32.634C52.1039 32.634 51.3569 33.7641 51.0889 35.1631L50.5666 37.7995H48.9302L48.9312 37.8005Z" fill="#FAFAFA"/>
<path d="M56.0552 36.0108C56.5912 36.3469 57.3677 36.5895 58.1992 36.5895C59.116 36.5895 59.9622 36.118 59.9622 35.2441C59.9622 34.6517 59.5529 34.2484 58.6223 33.7778C57.5218 33.2117 56.6893 32.4859 56.6893 31.4094C56.6893 29.6742 58.2689 28.584 60.188 28.584C61.2463 28.584 61.9374 28.8392 62.3035 29.0409L61.7675 30.3464C61.4573 30.1847 60.8222 29.9294 60.0467 29.9431C59.0022 29.9431 58.4102 30.5218 58.4102 31.1268C58.4102 31.7318 58.9462 32.1089 59.8346 32.5931C60.991 33.1718 61.6821 33.8986 61.6821 35.0015C61.6821 36.8185 60.1448 37.9476 58.0146 37.9476C56.8582 37.934 55.9128 37.6242 55.4897 37.3017L56.0542 36.0098L56.0552 36.0108Z" fill="#FAFAFA"/>
<path d="M69.3716 31.2487L68.4685 35.7692C68.3134 36.5496 68.2142 37.2355 68.1298 37.8006H66.6769L66.8183 36.6568H66.7898C66.1272 37.5044 65.2662 37.9487 64.4063 37.9487C63.405 37.9487 62.6147 37.4372 62.6147 36.0917C62.6147 35.742 62.657 35.3659 62.7561 34.9216L63.4894 31.2487H65.1259L64.42 34.8281C64.3494 35.1506 64.3072 35.474 64.3072 35.7293C64.3072 36.2671 64.5329 36.6568 65.1818 36.6568C65.9436 36.6568 66.832 35.7956 67.1 34.4374L67.7352 31.2487H69.3716Z" fill="#FAFAFA"/>
<path d="M69.5977 37.8005L70.4017 33.7641C70.5852 32.8356 70.6696 31.8409 70.7541 31.2485H72.1785C72.1363 31.6928 72.0941 32.1497 72.0234 32.634H72.0656C72.5309 31.7454 73.2789 31.1005 74.2243 31.1005C74.3372 31.1005 74.4638 31.1141 74.5767 31.1277L74.2528 32.6612C74.1683 32.6476 74.0554 32.634 73.9425 32.634C72.7714 32.634 72.0244 33.7641 71.7564 35.1631L71.2341 37.7995H69.5977V37.8005Z" fill="#FAFAFA"/>
<path d="M74.3385 38.9706C74.7479 39.1995 75.5096 39.3613 76.1585 39.3613C77.2305 39.3613 78.0482 38.877 78.3869 37.3562L78.5558 36.6158H78.5273C77.9628 37.3962 77.2433 37.7732 76.3696 37.7732C75.0011 37.7732 74.2256 36.6976 74.2109 35.4593C74.2109 33.2799 75.8611 31.1005 78.7109 31.1005C79.5993 31.1005 80.4602 31.2885 81.0944 31.5574L80.0499 36.9665C79.7966 38.2447 79.401 39.2668 78.6392 39.8864C77.9196 40.4515 76.9468 40.6122 76.0859 40.6122C75.225 40.6122 74.3935 40.4368 73.9419 40.1679L74.3365 38.9706H74.3385ZM79.3038 32.4859C79.1349 32.405 78.7815 32.3241 78.4007 32.3241C76.9615 32.3241 75.9465 33.804 75.9465 35.2167C75.9318 35.9026 76.2282 36.5486 77.0469 36.5486C77.8656 36.5486 78.6834 35.6201 78.9229 34.4363L79.3038 32.4859Z" fill="#FAFAFA"/>
<path d="M86.7661 37.4234C86.0888 37.7596 85.1718 37.9486 84.3404 37.9486C82.4359 37.9486 81.519 36.8321 81.519 35.2304C81.519 33.2536 83.0426 31.1005 85.4124 31.1005C86.7661 31.1005 87.627 31.8536 87.627 32.9438C87.627 34.6254 85.7795 35.1641 83.127 35.1096C83.0986 35.3385 83.1555 35.7818 83.3106 36.038C83.5786 36.4823 84.0724 36.7103 84.7213 36.7103C85.4978 36.7103 86.1182 36.5222 86.612 36.2797L86.7671 37.4234H86.7661ZM86.075 32.9428C86.075 32.5258 85.7226 32.2706 85.2003 32.2706C84.1705 32.2706 83.4932 33.1454 83.2959 33.9395C84.9883 33.9668 86.075 33.7368 86.075 32.9574V32.9438V32.9428Z" fill="#FAFAFA"/>
<path d="M87.7822 37.8005L88.5862 33.7641C88.7698 32.8356 88.8542 31.8409 88.9386 31.2485H90.363C90.3208 31.6928 90.2786 32.1497 90.2079 32.634H90.2502C90.7155 31.7454 91.4635 31.1005 92.4089 31.1005C92.5218 31.1005 92.6484 31.1141 92.7613 31.1277L92.4373 32.6612C92.3529 32.6476 92.24 32.634 92.1271 32.634C90.956 32.634 90.2089 33.7641 89.9409 35.1631L89.4187 37.7995H87.7822V37.8005Z" fill="#FAFAFA"/>
<path d="M94.6938 31.2487L95.2298 34.4101C95.3574 35.1097 95.4418 35.5939 95.4978 36.0381H95.5263C95.6951 35.6348 95.865 35.1905 96.1889 34.4774L97.6702 31.2487H99.4059L96.8947 36.0791C96.0623 37.6798 95.3005 38.8372 94.3836 39.6848C93.5933 40.4253 92.6912 40.7341 92.2681 40.815L91.8872 39.4705C92.1974 39.376 92.6774 39.2006 93.1005 38.9044C93.5659 38.582 94.0037 38.125 94.3139 37.5999C94.3699 37.4917 94.3699 37.4119 94.3424 37.2901L92.9739 31.2496H94.6948L94.6938 31.2487Z" fill="#FAFAFA"/>
<path d="M99.2785 37.9349C98.7003 37.9349 98.3057 37.517 98.3057 36.9665C98.3057 36.3342 98.7857 35.8091 99.4621 35.8091C100.054 35.8091 100.463 36.2124 100.463 36.8048C100.463 37.4507 99.9696 37.9359 99.2923 37.9359H99.2785V37.9349Z" fill="#FAFAFA"/>
<path d="M105.415 28.733H110.662L110.38 30.0649H106.797L106.289 32.6213H109.618L109.35 33.9395H106.021L105.26 37.8005H103.609L105.415 28.733Z" fill="#FAFAFA"/>
<path d="M116.7 33.8187C116.7 36.038 115.064 37.9486 112.723 37.9486C110.987 37.9486 109.915 36.8048 109.915 35.244C109.915 33.0237 111.538 31.0995 113.879 31.0995C115.727 31.0995 116.7 32.3641 116.7 33.8177V33.8187ZM111.608 35.2041C111.608 36.1053 112.117 36.7376 112.948 36.7376C114.176 36.7376 114.994 35.1222 114.994 33.8177C114.994 33.1445 114.684 32.3105 113.682 32.3105C112.369 32.3105 111.608 33.9794 111.608 35.2031V35.2041Z" fill="#FAFAFA"/>
<path d="M117.055 37.8005L117.859 33.7641C118.042 32.8356 118.127 31.8409 118.211 31.2485H119.636C119.593 31.6928 119.551 32.1497 119.48 32.634H119.523C119.988 31.7454 120.736 31.1005 121.681 31.1005C121.794 31.1005 121.921 31.1141 122.034 31.1277L121.71 32.6612C121.625 32.6476 121.512 32.634 121.4 32.634C120.228 32.634 119.481 33.7641 119.213 35.1631L118.691 37.7995H117.056L117.055 37.8005Z" fill="#FAFAFA"/>
<path d="M125.688 28.733H127.338L125.801 36.4288H129.539L129.271 37.8015H123.882L125.688 28.734V28.733Z" fill="#FAFAFA"/>
<path d="M130.061 37.8005L131.373 31.2486H133.009L131.697 37.8005H130.061ZM132.459 30.3064C131.965 30.3064 131.627 29.9567 131.627 29.4725C131.627 28.9064 132.079 28.5167 132.615 28.5167C133.123 28.5167 133.49 28.8665 133.49 29.3643C133.475 29.9421 133.024 30.3064 132.474 30.3064H132.459Z" fill="#FAFAFA"/>
<path d="M133.418 37.8005L134.477 32.4586H133.588L133.828 31.2476H134.716L134.787 30.9115C134.941 30.0775 135.281 29.2425 135.93 28.7047C136.438 28.2878 137.101 28.0997 137.735 28.0997C138.215 28.0997 138.567 28.1806 138.751 28.2751L138.441 29.5124C138.272 29.4452 138.046 29.4043 137.778 29.4043C137.002 29.4043 136.565 30.0902 136.41 30.9378L136.354 31.2466H137.778L137.538 32.4576H136.113L135.056 37.7995H133.419L133.418 37.8005Z" fill="#FAFAFA"/>
<path d="M142.601 37.4234C141.924 37.7596 141.006 37.9486 140.175 37.9486C138.27 37.9486 137.354 36.8321 137.354 35.2304C137.354 33.2536 138.877 31.1005 141.247 31.1005C142.601 31.1005 143.461 31.8536 143.461 32.9438C143.461 34.6254 141.614 35.1641 138.962 35.1096C138.933 35.3385 138.989 35.7818 139.145 36.038C139.413 36.4823 139.907 36.7103 140.556 36.7103C141.331 36.7103 141.952 36.5222 142.445 36.2797L142.601 37.4234ZM141.909 32.9428C141.909 32.5258 141.557 32.2706 141.035 32.2706C140.005 32.2706 139.328 33.1454 139.13 33.9395C140.823 33.9668 141.909 33.7368 141.909 32.9574V32.9438V32.9428Z" fill="#FAFAFA"/>
<path d="M144.422 37.9349C143.844 37.9349 143.448 37.517 143.448 36.9665C143.448 36.3342 143.927 35.8091 144.605 35.8091C145.197 35.8091 145.606 36.2124 145.606 36.8048C145.606 37.4507 145.112 37.9359 144.435 37.9359H144.421L144.422 37.9349Z" fill="#FAFAFA"/>
<path d="M146.675 29.9781H145.536L145.657 29.5416H148.649L148.527 29.9781H147.381L146.723 32.4254H146.011L146.674 29.9781H146.675Z" fill="#FAFAFA"/>
<path d="M151.625 32.4254L151.899 31.0693C151.96 30.7741 152.045 30.3678 152.149 30.0122H152.13C151.917 30.3503 151.672 30.7224 151.448 31.0264L150.437 32.3914H149.888L149.675 31.0478C149.626 30.7273 149.589 30.3551 149.565 30.0122H149.553C149.443 30.3415 149.321 30.778 149.217 31.0693L148.749 32.4254H148.091L149.133 29.5416H150.07L150.289 30.889C150.32 31.1453 150.363 31.4453 150.369 31.7191H150.393C150.54 31.4453 150.735 31.1414 150.911 30.8939L151.904 29.5416H152.854L152.313 32.4254H151.624H151.625Z" fill="#FAFAFA"/>
<path d="M15.428 16.8217L20.9892 10.5133V0H16.068L0 18.2256H7.08964L15.428 8.76839V16.8217Z" fill="#FAFAFA"/>
<path d="M36.4818 0H31.5627L15.4937 18.2256H22.5833L30.9216 8.76839V18.2256H36.4818V0Z" fill="#FAFAFA"/>
<path d="M125.54 0H120.62L104.551 18.2256H111.641L119.979 8.76839V18.2256H125.54V0Z" fill="#FAFAFA"/>
<path d="M39.3472 2.06445H44.98V18.1973H39.3472V2.06445Z" fill="#FAFAFA"/>
<path d="M63.8447 2.32553V4.27893C62.3997 4.00711 61.1903 3.87169 60.2155 3.87169C58.8794 3.87169 57.7328 3.99834 56.7766 4.2536C55.8195 4.50788 55.0302 4.89954 54.4069 5.42856C53.7845 5.95856 53.3241 6.62886 53.0257 7.44042C52.7282 8.25198 52.579 9.21163 52.579 10.3194C52.579 14.3041 55.2236 16.2965 60.5139 16.2965C61.4347 16.2965 62.545 16.1854 63.8447 15.9623V17.9586C62.491 18.2509 60.9743 18.397 59.2946 18.397C50.8267 18.397 46.5938 15.7285 46.5938 10.3934C46.5938 7.50959 47.6265 5.36426 49.6949 3.95645C51.7623 2.54961 54.9262 1.84521 59.1867 1.84521C60.7573 1.84521 62.3103 2.00499 63.8447 2.32553Z" fill="#FAFAFA"/>
<path d="M65.8101 2.06445H73.2305C76.2992 2.06445 78.5836 2.34699 80.0826 2.91011C81.9782 3.64179 82.9265 4.76024 82.9265 6.26451C82.9265 7.42096 82.4259 8.34846 81.4236 9.04896C80.4223 9.74848 78.99 10.183 77.1307 10.3496L84.8221 18.1963H79.1078L71.4439 10.297V18.1963H65.811V2.06445H65.8101ZM71.4429 9.21166C73.6271 9.21166 75.1713 9.01681 76.0734 8.62613C76.9766 8.23642 77.4282 7.57782 77.4282 6.65129C77.4282 6.15052 77.3329 5.72184 77.1435 5.36624C76.954 5.0116 76.6556 4.72225 76.2502 4.49914C75.8437 4.27701 75.3205 4.11236 74.6795 4.00811C74.0384 3.90289 73.2757 3.85126 72.3912 3.85126H71.4429V9.21166Z" fill="#FAFAFA"/>
<path d="M105.968 10.5279C105.968 13.3766 105.146 15.4002 103.504 16.5985C101.861 17.7969 99.1069 18.396 95.2441 18.396C91.1819 18.396 88.3203 17.7521 86.6593 16.4631C85.016 15.2024 84.1953 12.9626 84.1953 9.74458C84.1953 6.87537 85.0081 4.84403 86.6328 3.6525C88.2752 2.45415 91.0553 1.85498 94.9741 1.85498C98.4767 1.85498 101.076 2.31873 102.774 3.24526C103.894 3.86586 104.706 4.7466 105.212 5.88844C105.717 6.94746 105.97 8.49362 105.97 10.5279H105.968ZM100.064 10.7578C100.064 7.96459 99.7391 6.11154 99.0893 5.19866C98.4394 4.27895 97.1122 3.8191 95.1086 3.8191C93.105 3.8191 91.768 4.24096 91.1004 5.08369C90.4505 5.93423 90.1256 7.64016 90.1256 10.2035C90.1256 12.5651 90.4682 14.2028 91.1544 15.1147C91.8593 15.9789 93.1767 16.4105 95.1086 16.4105C97.0405 16.4105 98.3039 16.0062 99.0088 15.1985C99.7126 14.3977 100.065 12.9178 100.065 10.7578H100.064Z" fill="#FAFAFA"/>
<path d="M128.294 2.06445H133.927V18.1973H128.294V2.06445Z" fill="#FAFAFA"/>
<path d="M137.045 2.06445H144.465C147.534 2.06445 149.818 2.34699 151.317 2.91011C153.213 3.64179 154.161 4.76024 154.161 6.26451C154.161 7.42096 153.661 8.34846 152.658 9.04896C151.657 9.74848 150.226 10.183 148.366 10.3496L156.057 18.1963H150.343L142.679 10.297V18.1963H137.046V2.06445H137.045ZM142.678 9.21166C144.862 9.21166 146.406 9.01681 147.308 8.62613C148.211 8.23642 148.663 7.57782 148.663 6.65129C148.663 6.15052 148.568 5.72184 148.378 5.36624C148.189 5.0116 147.89 4.72225 147.485 4.49914C147.079 4.27701 146.555 4.11236 145.914 4.00811C145.273 3.90289 144.511 3.85126 143.626 3.85126H142.678V9.21166Z" fill="#FAFAFA"/>
<path d="M157.643 2.06445H172.619V3.90289H163.276V9.01291H171.563V10.8513H163.276V16.3579H172.619V18.1963H157.643V2.06445Z" fill="#FAFAFA"/>
<path d="M179.23 2.32359C179.718 2.81559 180 3.47614 180 4.18151C180 4.88688 179.726 5.55425 179.222 6.03944C178.697 6.54605 178.025 6.82567 177.329 6.82567C176.633 6.82567 175.96 6.54605 175.45 6.03262C174.946 5.526 174.673 4.88006 174.673 4.18249C174.673 3.48491 174.962 2.80975 175.479 2.28754C175.967 1.79554 176.611 1.53931 177.329 1.53931C178.046 1.53931 178.72 1.81113 179.23 2.32456V2.32359ZM178.986 2.56618C178.542 2.11899 177.972 1.88322 177.336 1.88322C176.7 1.88322 176.144 2.1112 175.723 2.53695C175.271 2.99194 175.02 3.57942 175.02 4.18249C175.02 4.78556 175.264 5.34966 175.701 5.79002C176.138 6.23137 176.722 6.47298 177.314 6.47298C177.942 6.47298 178.513 6.23819 178.972 5.79782C179.409 5.37888 179.646 4.81381 179.646 4.20392C179.646 3.59403 179.417 2.99291 178.987 2.56618H178.986ZM178.66 3.45471C178.66 3.88047 178.409 4.17469 177.972 4.26238L178.645 5.6283H178.008L177.394 4.35103H176.831V5.6283H176.261V2.63243H177.4C178.244 2.63243 178.658 2.91205 178.658 3.45471H178.66ZM176.833 2.99973V3.99153H177.314C177.831 3.99153 178.076 3.86682 178.076 3.51414C178.076 3.16146 177.831 3.0007 177.299 3.0007H176.833V2.99973Z" fill="#FAFAFA"/>
</svg>
