<svg width="32" height="31" viewBox="0 0 32 31" fill="none" xmlns="http://www.w3.org/2000/svg">
<g clip-path="url(#clip0_421_405)">
<path fill-rule="evenodd" clip-rule="evenodd" d="M16.74 0C8.346 0 1.54052 6.75285 1.54052 15.0837C1.54052 17.9329 2.33739 20.5979 3.72105 22.8718L0.978027 30.9632L9.39286 28.2896C11.5699 29.4834 14.0751 30.1656 16.74 30.1656C25.1357 30.1656 31.9412 23.4127 31.9412 15.0819C31.9412 6.75112 25.1357 0 16.74 0ZM16.74 27.6384C14.1706 27.6384 11.7765 26.8736 9.77827 25.5626L4.91548 27.1079L6.49532 22.4446C4.97972 20.374 4.08563 17.8313 4.08563 15.0819C4.08737 8.15854 9.76265 2.52543 16.74 2.52543C23.7173 2.52543 29.3944 8.15854 29.3944 15.0819C29.3944 22.0053 23.7173 27.6384 16.74 27.6384ZM23.8666 18.51C23.4847 18.3033 21.6132 17.3007 21.2625 17.1595C20.9118 17.0182 20.6549 16.9441 20.3823 17.3197C20.1097 17.6952 19.332 18.5342 19.0976 18.7822C18.8615 19.0303 18.6341 19.0544 18.2521 18.846C17.8719 18.6392 16.6376 18.1862 15.2036 16.8201C14.089 15.7572 13.3581 14.4669 13.1463 14.0742C12.9345 13.6797 13.1463 13.4799 13.3459 13.2955C13.5265 13.1284 13.7504 12.8597 13.9536 12.6426C14.155 12.4256 14.2261 12.2671 14.365 12.0156C14.5039 11.7641 14.4484 11.5367 14.3581 11.3403C14.2678 11.1439 13.5629 9.22143 13.2695 8.43761C12.9762 7.65552 12.648 7.77094 12.4206 7.76233C12.1949 7.75544 11.9362 7.71237 11.6776 7.70376C11.4189 7.69342 10.9953 7.77439 10.6255 8.14648C10.2557 8.51858 9.21751 9.41264 9.14633 11.3076C9.07515 13.2008 10.3963 15.0837 10.5803 15.3472C10.7644 15.6108 13.1029 19.7176 16.9883 21.4058C20.8754 23.094 20.8945 22.579 21.608 22.5411C22.3215 22.5032 23.9378 21.6952 24.2955 20.8081C24.6531 19.9209 24.6809 19.1509 24.5906 18.9872C24.5003 18.8236 24.2451 18.7168 23.8649 18.51H23.8666Z" fill="#434445"/>
</g>
<defs>
<clipPath id="clip0_421_405">
<rect width="30.9632" height="30.9632" fill="white" transform="translate(0.978027)"/>
</clipPath>
</defs>
</svg>
